<?xml version="1.0" encoding="UTF-8" standalone="no"?>
<!-- Created with Inkscape (http://www.inkscape.org/) -->

<svg
   width="64"
   height="64"
   viewBox="0 0 16.933333 16.933333"
   version="1.1"
   id="svg4147"
   xmlns="http://www.w3.org/2000/svg"
   xmlns:svg="http://www.w3.org/2000/svg">
  <defs
     id="defs4144" />
  <g
     id="layer1">
    <g
       id="g5895"
       transform="translate(-58.654104,-123.88513)">
      <path
         id="path5850"
         style="fill:#ee7f00;fill-opacity:1;stroke:none;stroke-width:0.0604999;stroke-linecap:round;stroke-linejoin:round"
         d="m 62.243037,125.61623 c -1.957522,0 -3.533484,1.57597 -3.533484,3.53349 v 6.40417 c 0,1.95752 1.575962,3.53348 3.533484,3.53348 h 9.755468 c 1.957522,0 3.533484,-1.57596 3.533484,-3.53348 v -9.93766 z" />
      <g
         aria-label="2"
         id="text5854"
         style="font-size:9.38893px;line-height:1.25;font-family:'Lucida Console';-inkscape-font-specification:'Lucida Console';letter-spacing:0px;word-spacing:0px;fill:#ffffff;stroke-width:0.234724">
        <path
           d="m 66.552105,134.29908 h 2.450511 v 0.96706 h -4.009073 v -0.90133 q 1.098505,-0.77928 1.896564,-1.66184 0.798059,-0.89195 0.798059,-1.60551 0,-0.46945 -0.272279,-0.73234 -0.272279,-0.26289 -0.78867,-0.26289 -0.779281,0 -1.49284,0.58212 v -1.09851 q 0.309835,-0.23472 0.769892,-0.38495 0.460058,-0.15022 0.920115,-0.15022 0.901338,0 1.464673,0.49762 0.572725,0.48822 0.572725,1.38017 0,1.67123 -2.309677,3.37062 z"
           style="font-family:'Hind SemiBold';-inkscape-font-specification:'Hind SemiBold, '"
           id="path5883" />
      </g>
    </g>
  </g>
</svg>
