<?xml version="1.0" encoding="UTF-8" standalone="no"?>
<!-- Created with Inkscape (http://www.inkscape.org/) -->

<svg
   width="64"
   height="64"
   viewBox="0 0 16.933333 16.933333"
   version="1.1"
   id="svg4147"
   xmlns="http://www.w3.org/2000/svg"
   xmlns:svg="http://www.w3.org/2000/svg">
  <defs
     id="defs4144" />
  <g
     id="layer1">
    <g
       id="g5945"
       transform="translate(-78.750523,-123.88513)">
      <path
         id="path5858"
         style="fill:#cbd300;fill-opacity:1;stroke:none;stroke-width:0.0604999;stroke-linecap:round;stroke-linejoin:round"
         d="m 82.339456,125.61623 c -1.957522,0 -3.533484,1.57597 -3.533484,3.53349 v 6.40417 c 0,1.95752 1.575962,3.53348 3.533484,3.53348 h 9.755468 c 1.957522,0 3.533484,-1.57596 3.533484,-3.53348 v -9.93766 z" />
      <g
         aria-label="3"
         id="text5862"
         style="font-size:9.38893px;line-height:1.25;font-family:'Lucida Console';-inkscape-font-specification:'Lucida Console';letter-spacing:0px;word-spacing:0px;fill:#373a4f;stroke-width:0.234724">
        <path
           d="m 85.596631,130.45901 v -1.06095 q 0.638448,-0.34739 1.342617,-0.34739 0.96706,0 1.511618,0.46945 0.553947,0.46944 0.553947,1.20178 0,1.06095 -0.96706,1.4459 0.52578,0.13144 0.816837,0.49761 0.291057,0.35678 0.291057,0.91073 0,0.76989 -0.572725,1.25811 -0.563335,0.47884 -1.586729,0.47884 -0.948282,0 -1.614896,-0.30984 v -1.0985 q 0.732337,0.39433 1.539785,0.39433 0.507002,0 0.78867,-0.23472 0.291057,-0.24411 0.291057,-0.61967 0,-0.81684 -1.32384,-0.81684 H 86.31019 v -0.94828 h 0.356779 q 0.497614,0 0.835615,-0.21594 0.338002,-0.21595 0.338002,-0.61028 0,-0.78867 -0.96706,-0.78867 -0.638447,0 -1.276895,0.39433 z"
           style="font-family:'Hind SemiBold';-inkscape-font-specification:'Hind SemiBold, '"
           id="path5886" />
      </g>
    </g>
  </g>
</svg>
